<?xml version="1.0" encoding="UTF-8"?>
<svg version="1.1" xmlns="http://www.w3.org/2000/svg" width="225" height="225">
<path d="M0 0 C74.25 0 148.5 0 225 0 C225 74.25 225 148.5 225 225 C150.75 225 76.5 225 0 225 C0 150.75 0 76.5 0 0 Z " fill="#FCFEFE" transform="translate(0,0)"/>
<path d="M0 0 C74.25 0 148.5 0 225 0 C225 74.25 225 148.5 225 225 C150.75 225 76.5 225 0 225 C0 150.75 0 76.5 0 0 Z M42.53515625 54.8046875 C36.39996235 62.54447057 32.07040516 71.05401595 28 80 C27.71954834 80.61045166 27.43909668 81.22090332 27.15014648 81.84985352 C22.67003975 91.89090808 22.80693224 102.37416959 22.75 113.1875 C22.74073486 114.29198486 22.73146973 115.39646973 22.72192383 116.53442383 C22.75901444 126.24125408 24.24783948 134.89416364 27.75 143.9375 C28.14578247 144.96653442 28.14578247 144.96653442 28.54956055 146.01635742 C32.76544214 156.71705422 38.3329498 165.41041042 46 174 C46.76183594 174.85722656 47.52367188 175.71445313 48.30859375 176.59765625 C60.05351785 189.07543276 77.78384348 199.68178486 95 202 C95.64066406 202.10828125 96.28132813 202.2165625 96.94140625 202.328125 C121.63078227 205.88864223 145.91565295 200.85454671 166.0793457 185.99389648 C187.51280121 169.39529105 198.93307335 147.69438314 202.74511719 121.10449219 C205.59698989 97.5574206 198.44870931 75.27470788 184.0625 56.75 C169.44850494 39.26340668 148.93230145 25.91035229 126 23 C121.05903123 22.68445635 116.13751307 22.63000254 111.1875 22.625 C109.92357422 22.60050781 108.65964844 22.57601563 107.35742188 22.55078125 C82.03805444 22.47299517 58.93606708 36.14247835 42.53515625 54.8046875 Z " fill="#44C0FB" transform="translate(0,0)"/>
<path d="M0 0 C74.25 0 148.5 0 225 0 C225 74.25 225 148.5 225 225 C150.75 225 76.5 225 0 225 C0 150.75 0 76.5 0 0 Z M79 5 C78.36787598 5.21430664 77.73575195 5.42861328 77.08447266 5.64941406 C63.31344525 10.41190881 51.00270762 17.43400958 40 27 C39.16855469 27.69867187 38.33710937 28.39734375 37.48046875 29.1171875 C16.52147714 47.21081774 5.01444072 71.94642984 1 99 C-0.95373966 132.57467921 5.63480607 160.62923798 27.7265625 186.48046875 C45.60745887 206.29692607 70.72418761 222.70396742 98.10546875 224.30371094 C102.4667345 224.47265198 106.82373144 224.4757585 111.1875 224.4375 C112.34211227 224.43144241 112.34211227 224.43144241 113.52005005 224.42526245 C144.01416036 224.20103814 168.82945445 214.25472267 191 193 C191.69738281 192.35417969 192.39476562 191.70835937 193.11328125 191.04296875 C201.59647072 182.95511238 207.75229046 173.420237 213 163 C213.41894531 162.22011719 213.83789062 161.44023437 214.26953125 160.63671875 C221.98933633 145.27063054 224.57436687 129.56166877 224.5625 112.5625 C224.56512848 111.85133026 224.56775696 111.14016052 224.57046509 110.40744019 C224.56471894 96.67713064 222.66154322 83.63732784 217.3125 70.875 C216.96147217 70.02591064 216.61044434 69.17682129 216.2487793 68.30200195 C204.83599966 41.43925158 182.39854645 20.02022612 155.69921875 8.46484375 C149.91069728 6.1726626 144.06770628 4.38559094 138 3 C137.22865723 2.82339844 136.45731445 2.64679687 135.66259766 2.46484375 C127.7373132 0.82260164 119.95091212 0.61415058 111.875 0.625 C111.19091064 0.62554382 110.50682129 0.62608765 109.80200195 0.62664795 C99.01528712 0.66604083 89.21569301 1.46675279 79 5 Z " fill="#FCFEFE" transform="translate(0,0)"/>
<path d="M0 0 C2.22966615 0.0031561 4.45799766 -0.02033022 6.6875 -0.0456543 C14.14801762 -0.07871574 20.9866783 0.08512014 27.8671875 3.31567383 C28.5065625 3.61586426 29.1459375 3.91605469 29.8046875 4.2253418 C37.51995629 8.0673492 44.04958511 15.16008211 46.8671875 23.31567383 C47.33530594 27.0206112 47.55239596 30.64137061 47.62890625 34.37426758 C47.55746733 37.43775549 47.55746733 37.43775549 49.8671875 39.31567383 C53.14754675 39.66493041 56.40683208 39.75893453 59.703125 39.87426758 C63.25458311 40.36971791 64.43835244 40.71162189 66.8671875 43.31567383 C67.28639087 46.10275271 67.4518937 48.49043403 67.43359375 51.28051758 C67.43979233 52.06906631 67.44599091 52.85761505 67.45237732 53.6700592 C67.45948448 55.34366626 67.45628576 57.01734388 67.44360352 58.69091797 C67.42990185 61.21370699 67.46358768 63.7326611 67.50195312 66.25512695 C67.56275394 78.83085309 65.66999296 89.27889034 56.6171875 98.70239258 C48.01511326 106.63242977 39.40259209 107.77784025 28.1875 107.74926758 C26.3755867 107.75713036 26.3755867 107.75713036 24.52706909 107.76515198 C21.9804562 107.77155474 19.43381366 107.77025792 16.88720703 107.76171875 C13.0115029 107.7532162 9.13727731 107.78198609 5.26171875 107.8137207 C2.77864627 107.8153332 0.29557121 107.81475425 -2.1875 107.81176758 C-3.33572235 107.82300156 -4.4839447 107.83423553 -5.66696167 107.84580994 C-15.12739427 107.76473096 -23.46969981 105.75826869 -30.53515625 99.14379883 C-39.02044798 89.43446746 -40.44382993 79.4853401 -40.46875 67.03833008 C-40.4754068 65.87240829 -40.4820636 64.70648651 -40.48892212 63.50523376 C-40.49901126 61.04858978 -40.5037403 58.59191859 -40.50341797 56.13525391 C-40.50779457 52.39349988 -40.54416583 48.65292298 -40.58203125 44.91137695 C-40.5878996 42.51619867 -40.59186887 40.12101482 -40.59375 37.72583008 C-40.60812103 36.616194 -40.62249207 35.50655792 -40.63729858 34.36329651 C-40.57925936 24.41583835 -37.83832491 17.4331134 -31.0546875 10.17114258 C-21.59933175 1.04249628 -12.8476577 -0.03803583 0 0 Z " fill="#43C0FB" transform="translate(101.1328125,58.684326171875)"/>
<path d="M0 0 C0.91112045 -0.00953201 1.82224091 -0.01906403 2.76097107 -0.02888489 C4.24066124 -0.02751778 4.24066124 -0.02751778 5.75024414 -0.02612305 C6.76131729 -0.03040817 7.77239044 -0.0346933 8.81410217 -0.03910828 C10.95516205 -0.0448584 13.09624147 -0.04534684 15.23730469 -0.04101562 C18.51864882 -0.03785792 21.79908986 -0.06129893 25.08032227 -0.08666992 C27.15779508 -0.08894301 29.23527033 -0.08964637 31.31274414 -0.08862305 C32.29718002 -0.09783279 33.28161591 -0.10704254 34.29588318 -0.11653137 C35.21015579 -0.11030258 36.12442841 -0.10407379 37.06640625 -0.09765625 C38.27314247 -0.09860039 38.27314247 -0.09860039 39.5042572 -0.0995636 C42.1330027 0.37030342 43.01600242 1.15193443 44.59790039 3.2746582 C45.2402241 8.41324789 45.2402241 8.41324789 43.35768127 10.93789673 C41.11638241 12.640428 39.86348297 12.65454337 37.06640625 12.6628418 C36.15213364 12.67229828 35.23786102 12.68175476 34.29588318 12.6914978 C33.3114473 12.68542511 32.32701141 12.67935242 31.31274414 12.6730957 C29.79469933 12.67740097 29.79469933 12.67740097 28.24598694 12.68179321 C26.10669393 12.68383491 23.96738231 12.67829773 21.828125 12.66577148 C18.54458125 12.64970313 15.2622654 12.66562561 11.97875977 12.68481445 C9.90258516 12.68283237 7.82641133 12.67898941 5.75024414 12.6730957 C4.76378403 12.6791684 3.77732391 12.68524109 2.76097107 12.6914978 C1.84985062 12.68204132 0.93873016 12.67258484 0 12.6628418 C-1.20554283 12.65926163 -1.20554283 12.65926163 -2.43544006 12.65560913 C-3.40893654 12.46703842 -3.40893654 12.46703842 -4.40209961 12.2746582 C-6.85107808 8.60119049 -6.71747677 6.61109421 -6.40209961 2.2746582 C-3.96635856 -0.16108285 -3.33885723 0.01914087 0 0 Z " fill="#FBFDFE" transform="translate(95.402099609375,125.725341796875)"/>
<path d="M0 0 C1.10472656 -0.00386719 2.20945312 -0.00773437 3.34765625 -0.01171875 C4.50136719 -0.00011719 5.65507813 0.01148437 6.84375 0.0234375 C8.57431641 0.00603516 8.57431641 0.00603516 10.33984375 -0.01171875 C11.44457031 -0.00785156 12.54929687 -0.00398438 13.6875 0 C14.70005859 0.00338379 15.71261719 0.00676758 16.75585938 0.01025391 C19.34375 0.3984375 19.34375 0.3984375 21.17773438 1.70068359 C23.10740215 4.51033805 22.64261024 7.11097482 22.34375 10.3984375 C19.08212581 13.66006169 15.10889269 12.69452404 10.66796875 12.72070312 C9.40597656 12.71748047 8.14398438 12.71425781 6.84375 12.7109375 C4.95076172 12.73510742 4.95076172 12.73510742 3.01953125 12.75976562 C1.81683594 12.76041016 0.61414063 12.76105469 -0.625 12.76171875 C-2.28692383 12.76619019 -2.28692383 12.76619019 -3.98242188 12.77075195 C-4.86478516 12.64788818 -5.74714844 12.52502441 -6.65625 12.3984375 C-8.96907587 8.92919869 -9.08103586 7.47638175 -8.65625 3.3984375 C-6.26070094 -0.01732655 -4.00850202 0.01339569 0 0 Z " fill="#FBFDFE" transform="translate(97.65625,86.6015625)"/>
<path d="M0 0 C0.33 0 0.66 0 1 0 C1.08086147 1.79093191 1.13912702 3.58289628 1.1875 5.375 C1.22230469 6.37273437 1.25710937 7.37046875 1.29296875 8.3984375 C1.19628906 9.25695312 1.09960938 10.11546875 1 11 C0.01 11.66 -0.98 12.32 -2 13 C-1.39174965 8.65535464 -0.73832608 4.32448133 0 0 Z " fill="#E2F5FE" transform="translate(224,124)"/>
</svg>
